<?xml version="1.0" encoding="UTF-8" standalone="no"?>
<!-- Created with Inkscape (http://www.inkscape.org/) -->

<svg
   width="25.623592mm"
   height="25.558277mm"
   viewBox="0 0 25.623592 25.558277"
   version="1.1"
   id="svg5"
   inkscape:version="1.1.1 (c3084ef, 2021-09-22)"
   sodipodi:docname="logo.svg"
   xmlns:inkscape="http://www.inkscape.org/namespaces/inkscape"
   xmlns:sodipodi="http://sodipodi.sourceforge.net/DTD/sodipodi-0.dtd"
   xmlns="http://www.w3.org/2000/svg"
   xmlns:svg="http://www.w3.org/2000/svg">
  <sodipodi:namedview
     id="namedview7"
     pagecolor="#505050"
     bordercolor="#eeeeee"
     borderopacity="1"
     inkscape:pageshadow="0"
     inkscape:pageopacity="0"
     inkscape:pagecheckerboard="0"
     inkscape:document-units="mm"
     showgrid="false"
     inkscape:zoom="0.77771465"
     inkscape:cx="31.502557"
     inkscape:cy="107.36586"
     inkscape:window-width="1312"
     inkscape:window-height="1081"
     inkscape:window-x="3021"
     inkscape:window-y="143"
     inkscape:window-maximized="0"
     inkscape:current-layer="layer1"
     fit-margin-top="0"
     fit-margin-left="0"
     fit-margin-right="0"
     fit-margin-bottom="0" />
  <defs
     id="defs2" />
  <g
     inkscape:label="Layer 1"
     inkscape:groupmode="layer"
     id="layer1"
     transform="translate(-92.657441,-128.36655)">
    <g
       id="g415"
       transform="translate(-8.8453607,2.0412372)">
      <path
         style="fill:#e4e5e6;stroke-width:0.0846667"
         d="m 114.60562,151.80199 c -0.0699,-0.0451 -0.54012,-0.0827 -1.04504,-0.0834 -1.02362,-0.001 -2.1743,-0.20253 -3.1883,-0.55716 -0.34925,-0.12215 -0.76835,-0.2321 -0.93133,-0.24434 -0.73064,-0.0549 -2.67747,-1.30053 -3.9536,-2.52966 -1.40133,-1.34972 -2.38342,-2.78851 -3.056,-4.4771 -1.01579,-2.55028 -1.20312,-5.32167 -0.53753,-7.95243 0.2428,-0.95967 0.3093,-1.12711 0.90334,-2.27461 0.15669,-0.30268 0.2869,-0.61497 0.28934,-0.69397 0.008,-0.26753 1.19849,-1.93113 1.9363,-2.70644 1.14893,-1.20733 2.49847,-2.193 3.88343,-2.83635 0.93832,-0.43588 0.8497,-0.33407 -0.14261,0.16383 -1.3378,0.67126 -2.38196,1.42414 -3.43267,2.47511 -0.98829,0.98854 -2.15533,2.58992 -2.15533,2.9575 0,0.25093 0.56454,0.77143 0.92181,0.8499 0.28761,0.0632 0.75217,-0.0101 0.91969,-0.14505 0.15233,-0.12272 0.13063,-0.47394 -0.0643,-1.04046 -0.19556,-0.5684 -0.16438,-0.76351 0.13398,-0.83839 0.20436,-0.0513 0.73759,0.0536 0.93753,0.18447 0.12146,0.0795 0.24359,0.54506 0.37153,1.41635 0.1699,1.15705 0.38218,1.70735 0.83227,2.15744 0.25176,0.25175 0.55092,0.45038 0.81269,0.53957 0.59622,0.20316 0.845,0.18491 0.96137,-0.0705 0.0711,-0.15615 0.16195,-0.21166 0.34621,-0.21166 0.344,0 0.51586,0.20058 0.51586,0.60208 0,0.98112 1.20145,1.96178 3.01599,2.46175 0.55463,0.15282 0.90239,0.18463 2.06401,0.18881 1.25646,0.005 1.44385,-0.014 1.86267,-0.18385 0.63782,-0.2587 0.93083,-0.51569 1.09222,-0.95795 0.10503,-0.28782 0.21137,-0.41164 0.4567,-0.53176 0.48725,-0.23858 0.70211,-0.14477 0.79332,0.34636 l 0.0748,0.40289 0.6753,-0.008 c 0.94768,-0.0112 1.46232,-0.29193 1.84771,-1.00804 0.16329,-0.30341 0.18235,-0.47088 0.18308,-1.60867 8.9e-4,-1.40122 0.0491,-1.57805 0.47029,-1.72488 0.20217,-0.0705 0.3292,-0.064 0.54911,0.0279 0.38484,0.1608 0.43716,0.41763 0.21554,1.05803 -0.40391,1.16712 -0.11006,1.54259 1.06286,1.35806 0.73168,-0.11511 1.51797,-0.47729 1.9294,-0.88872 0.39641,-0.39641 0.38391,-0.48819 -0.24458,-1.79522 -0.66982,-1.39296 -1.37114,-2.37121 -2.54102,-3.54442 -1.14307,-1.14631 -2.21846,-1.91534 -3.52041,-2.5175 -0.44037,-0.20368 -0.89592,-0.41474 -1.01234,-0.46904 l -0.21167,-0.0987 0.21167,0.0483 c 0.45293,0.10341 2.28293,1.08115 3.04073,1.62461 0.98148,0.70388 2.07726,1.78099 2.82808,2.7799 0.77578,1.03211 1.73909,2.96007 1.83969,3.68192 0.0994,0.7129 0.2823,1.41343 0.45175,1.7298 0.0859,0.16039 0.13261,0.44122 0.12674,0.762 -0.0102,0.557 -0.0362,0.5055 -0.11754,-0.23283 -0.0632,-0.5739 -0.10232,-0.58606 -0.7847,-0.24403 -0.69151,0.34661 -3.26005,1.24077 -5.99543,2.08715 -2.50101,0.77385 -2.48999,0.7699 -2.48999,0.89238 0,0.12118 0.38773,0.0967 1.48338,-0.0935 0.54853,-0.0952 1.21069,-0.16193 1.47147,-0.14817 0.47118,0.0249 0.474,0.0266 0.44934,0.27901 -0.0749,0.76639 -0.86582,1.13394 -2.79886,1.30061 -0.82339,0.071 -0.99128,0.1111 -1.17244,0.28012 -0.20963,0.19558 -0.21096,0.20599 -0.15521,1.21327 0.069,1.24676 0.0163,1.44145 -1.02206,3.77252 -0.40045,0.89902 -0.8561,2.02537 -1.01256,2.50301 -0.28371,0.86609 -0.49938,2.11801 -0.40655,2.35992 0.0394,0.10274 0.22425,0.1272 0.95005,0.12572 1.40397,-0.003 2.69649,-0.3336 4.32284,-1.10619 3.5281,-1.676 6.08003,-4.8471 6.94384,-8.62864 0.10105,-0.44239 0.21513,-1.05199 0.25351,-1.35467 l 0.0698,-0.55033 0.0107,0.44807 c 0.0217,0.90459 -0.49694,2.79267 -1.13274,4.12393 -1.71752,3.59619 -5.139,6.27947 -9.01388,7.06912 -0.87605,0.17853 -2.15771,0.22454 -2.37331,0.0852 z m -5.06124,-1.16417 c 0.26143,-0.29871 1.17857,-1.9633 1.46251,-2.65442 0.40035,-0.97447 0.53594,-1.58702 0.37524,-1.69526 -0.17868,-0.12035 -1.00487,-0.0128 -2.15154,0.27998 -1.8095,0.4621 -2.84665,0.30767 -3.73172,-0.55564 -0.49628,-0.48408 -0.68754,-0.94645 -0.59517,-1.43883 0.0821,-0.43783 0.3782,-0.74081 1.25888,-1.2883 1.08989,-0.67753 1.4157,-0.99998 1.4157,-1.40103 0,-0.42543 0.11835,-0.70951 0.51389,-1.23353 0.18303,-0.24248 0.33278,-0.48275 0.33278,-0.53393 0,-0.0512 -0.18098,-0.17059 -0.40217,-0.26534 -1.67661,-0.71823 -2.57372,-1.30144 -2.8633,-1.86141 -0.11322,-0.21895 -0.11311,-0.2512 9.6e-4,-0.29498 0.21331,-0.0819 1.34887,0.19049 2.09562,0.5026 0.38677,0.16165 1.02707,0.43055 1.42289,0.59754 1.21724,0.51355 1.5397,0.33965 0.81226,-0.43804 -0.4603,-0.49211 -1.35099,-1.02776 -2.84426,-1.71051 -1.73817,-0.79472 -2.43118,-1.17453 -3.20276,-1.75532 -0.3878,-0.29191 -0.75748,-0.53074 -0.82152,-0.53074 -0.13459,0 -0.53809,1.19265 -0.7741,2.28802 -0.22016,1.02185 -0.22085,3.87837 -10e-4,4.90864 0.76687,3.59664 2.9612,6.6942 6.03314,8.51654 0.71476,0.42402 1.28952,0.70722 1.44145,0.71027 0.051,0.001 0.15107,-0.0648 0.22239,-0.14631 z m -0.66393,-9.49122 c 0.22829,-0.24015 0.26188,-0.52061 0.0624,-0.52061 -0.11745,0 -0.77185,0.76567 -0.77185,0.90309 0,0.16549 0.38685,-0.0431 0.7095,-0.38248 z m 0.8145,-14.01191 c 0,-0.0657 1.57653,-0.56492 1.75785,-0.55668 0.0809,0.004 0.10905,0.019 0.0625,0.034 -0.0466,0.015 -0.41853,0.12769 -0.82658,0.25039 -0.40806,0.12269 -0.79858,0.24482 -0.86783,0.2714 -0.0693,0.0266 -0.12592,0.027 -0.12592,9e-4 z m 8.59367,-0.2247 c -0.11166,-0.048 -0.12608,-0.0743 -0.0423,-0.0774 0.0699,-0.003 0.18415,0.0323 0.254,0.0774 0.15477,0.10002 0.0211,0.10002 -0.21166,0 z m -0.88603,-0.22547 c -0.25448,-0.069 -0.78788,-0.17612 -1.18533,-0.2381 -0.39745,-0.062 -0.59528,-0.11639 -0.43961,-0.1209 0.30619,-0.009 1.82283,0.28111 2.14436,0.40999 0.29816,0.11952 0.003,0.0905 -0.51942,-0.051 z m -5.69681,-0.16927 c 0.0582,-0.0235 0.15346,-0.0235 0.21167,0 0.0582,0.0235 0.0106,0.0427 -0.10583,0.0427 -0.11642,0 -0.16405,-0.0192 -0.10584,-0.0427 z m 0.46728,-0.0873 c 0.0824,-0.0215 0.19668,-0.0201 0.254,0.003 0.0573,0.0232 -0.0101,0.0408 -0.14978,0.039 -0.1397,-0.002 -0.1866,-0.0207 -0.10422,-0.0422 z m 0.54971,-0.0859 c 0.10532,-0.0203 0.25772,-0.0195 0.33867,0.002 0.081,0.0212 -0.005,0.0378 -0.19149,0.0368 -0.18627,-9.4e-4 -0.2525,-0.0183 -0.14718,-0.0385 z"
         id="path429" />
      <path
         style="fill:#ed9fa1;stroke-width:0.0846667"
         d="m 113.25095,139.02529 c -2.03726,-0.44866 -3.38667,-1.46014 -3.38667,-2.53855 0,-0.4015 -0.17186,-0.60208 -0.51586,-0.60208 -0.18426,0 -0.27506,0.0555 -0.34621,0.21166 -0.11637,0.25542 -0.36515,0.27367 -0.96137,0.0705 -0.26177,-0.0892 -0.56093,-0.28782 -0.81269,-0.53957 -0.45009,-0.45009 -0.66237,-1.00039 -0.83227,-2.15744 -0.12794,-0.87129 -0.25007,-1.33687 -0.37153,-1.41635 -0.19994,-0.13084 -0.73317,-0.23576 -0.93753,-0.18447 -0.29836,0.0749 -0.32954,0.26999 -0.13398,0.83839 0.19491,0.56652 0.21661,0.91774 0.0643,1.04046 -0.16752,0.13495 -0.63208,0.20822 -0.91969,0.14505 -0.35727,-0.0785 -0.92181,-0.59897 -0.92181,-0.8499 0,-0.36591 1.16712,-1.96888 2.15533,-2.96024 1.8415,-1.84735 4.07679,-3.03853 6.6954,-3.56797 1.16449,-0.23544 3.6714,-0.21215 4.86527,0.0452 2.61225,0.56309 4.6194,1.65308 6.48008,3.51904 1.16988,1.17321 1.8712,2.15146 2.54102,3.54443 0.62849,1.30702 0.64099,1.3988 0.24458,1.79521 -0.41143,0.41143 -1.19772,0.77361 -1.9294,0.88872 -1.17292,0.18453 -1.46677,-0.19093 -1.06286,-1.35806 0.22162,-0.6404 0.1693,-0.89723 -0.21554,-1.05803 -0.21991,-0.0919 -0.34694,-0.0983 -0.54911,-0.0278 -0.42118,0.14682 -0.46939,0.32365 -0.47029,1.72487 -6.8e-4,1.07655 -0.0249,1.31514 -0.15889,1.56634 -0.40241,0.75439 -0.90864,1.03838 -1.8719,1.05011 l -0.6753,0.008 -0.0748,-0.40289 c -0.0912,-0.49113 -0.30607,-0.58494 -0.79332,-0.34636 -0.24533,0.12012 -0.35167,0.24394 -0.4567,0.53176 -0.16233,0.44485 -0.45881,0.70323 -1.09222,0.95187 -0.669,0.26262 -2.53197,0.30344 -3.556,0.0779 z m 3.35182,-0.1266 c 0.46798,-0.14534 0.95465,-0.44155 1.05708,-0.64337 0.0354,-0.0699 0.11218,-0.25533 0.17053,-0.41218 0.19146,-0.51472 0.98003,-0.7943 1.28516,-0.45565 0.0734,0.0815 0.14601,0.28152 0.16129,0.4445 l 0.0278,0.29633 0.52959,-0.0147 c 0.93196,-0.0259 1.46138,-0.31357 1.82362,-0.99074 0.17046,-0.31866 0.18495,-0.45169 0.16572,-1.52194 -0.0165,-0.91645 0.008,-1.23308 0.10992,-1.44877 0.23434,-0.49384 0.78897,-0.60976 1.21246,-0.25342 0.34843,0.29319 0.38201,0.45717 0.18683,0.9125 -0.26455,0.61717 -0.3018,0.95543 -0.13352,1.21227 0.14242,0.21736 0.16238,0.22162 0.82527,0.17618 0.55172,-0.0378 0.79528,-0.10387 1.29666,-0.35166 0.70621,-0.34903 1.08737,-0.73241 1.00432,-1.01015 -0.13516,-0.45202 -0.6474,-1.54427 -1.01044,-2.15458 -1.59853,-2.68731 -4.13416,-4.72396 -7.02485,-5.64243 -1.52323,-0.48399 -2.25643,-0.59238 -3.98092,-0.5885 -1.23397,0.003 -1.68616,0.0383 -2.37614,0.18661 -2.64565,0.56873 -4.64435,1.64926 -6.51983,3.52474 -0.9904,0.9904 -2.15303,2.53749 -2.15303,2.865 0,0.17715 0.47115,0.64216 0.71184,0.70257 0.10491,0.0263 0.35526,0.0358 0.55633,0.0211 0.52968,-0.0387 0.58788,-0.18422 0.35854,-0.8963 -0.22282,-0.69185 -0.22943,-0.81194 -0.0543,-0.98705 0.2428,-0.2428 1.09593,-0.10791 1.36428,0.2157 0.0552,0.0665 0.17962,0.59632 0.27654,1.17729 0.0969,0.58096 0.23824,1.24457 0.31404,1.47469 0.19671,0.59718 0.79273,1.17119 1.42209,1.36958 l 0.48641,0.15333 0.2243,-0.27292 c 0.40551,-0.4934 0.97712,-0.2419 1.07225,0.47179 0.0815,0.61144 0.19211,0.82523 0.64712,1.25084 0.64828,0.60639 1.91791,1.11646 3.33093,1.33819 0.50902,0.0799 2.20441,-0.016 2.63215,-0.14884 z"
         id="path427" />
      <path
         style="fill:#65a3ad;stroke-width:0.0846667"
         d="m 114.57479,151.58977 c -0.0928,-0.24191 0.12284,-1.49383 0.40655,-2.35992 0.15646,-0.47764 0.61211,-1.60399 1.01256,-2.50301 1.03832,-2.33107 1.09106,-2.52576 1.02206,-3.77252 -0.0558,-1.00728 -0.0544,-1.01769 0.15521,-1.21327 0.18116,-0.16902 0.34905,-0.20913 1.17244,-0.28012 1.93304,-0.16667 2.72399,-0.53422 2.79886,-1.30061 0.0247,-0.2524 0.0218,-0.25415 -0.44934,-0.27901 -0.26078,-0.0138 -0.92294,0.0529 -1.47147,0.14817 -1.09565,0.19025 -1.48338,0.21469 -1.48338,0.0935 0,-0.12248 -0.011,-0.11853 2.48999,-0.89238 2.73538,-0.84638 5.30392,-1.74054 5.99543,-2.08715 0.26643,-0.13354 0.53992,-0.2428 0.60774,-0.2428 0.18333,0 0.2638,0.7498 0.25444,2.37066 -0.009,1.54575 -0.16844,2.53207 -0.63595,3.93242 -1.38741,4.15579 -4.9994,7.39754 -9.30431,8.35059 -0.9268,0.20518 -2.49739,0.22683 -2.57083,0.0354 z m 2.29923,-0.0899 c 0.9573,-0.19475 2.26058,-0.64819 3.16248,-1.10029 2.91237,-1.45992 5.2829,-4.16693 6.2986,-7.19264 0.53952,-1.60722 0.76445,-3.4133 0.63002,-5.05874 -0.0453,-0.55501 -0.10397,-1.04393 -0.13026,-1.08648 -0.0263,-0.0425 -0.20736,0.0149 -0.40236,0.12775 -0.61713,0.35703 -3.27339,1.27686 -7.11389,2.46345 -0.5511,0.17028 -0.9845,0.32709 -0.96312,0.34847 0.0214,0.0214 0.48675,-0.0389 1.03414,-0.13394 1.13414,-0.19694 1.65669,-0.21758 1.80305,-0.0712 0.24599,0.24598 0.0294,0.85316 -0.42747,1.1982 -0.38398,0.29001 -1.02897,0.46094 -2.12796,0.56395 -1.22388,0.11471 -1.29546,0.13324 -1.45493,0.37663 -0.11802,0.18012 -0.12235,0.30446 -0.0348,1.0001 0.12257,0.97375 0.0302,1.40945 -0.60556,2.85552 -1.41717,3.22354 -1.73124,4.12311 -1.82443,5.22563 l -0.0521,0.61637 h 0.77799 c 0.42789,0 1.07166,-0.0597 1.43059,-0.13276 z m -7.9834,-0.87268 c -1.21743,-0.55739 -2.68991,-1.6419 -3.76841,-2.77552 -1.62578,-1.70887 -2.76324,-3.89513 -3.27481,-6.29438 -0.21968,-1.03027 -0.21899,-3.88679 0.001,-4.90864 0.23601,-1.09537 0.63951,-2.28802 0.7741,-2.28802 0.064,0 0.43372,0.23883 0.82152,0.53074 0.77158,0.58079 1.46459,0.9606 3.20276,1.75532 1.49327,0.68275 2.38396,1.2184 2.84426,1.71051 0.72744,0.77769 0.40498,0.95159 -0.81226,0.43804 -0.39582,-0.16699 -1.03612,-0.43589 -1.4229,-0.59754 -0.74674,-0.31211 -1.8823,-0.58445 -2.09561,-0.5026 -0.11407,0.0438 -0.11418,0.076 -9.6e-4,0.29498 0.28958,0.55997 1.18669,1.14318 2.8633,1.86141 0.22119,0.0948 0.40217,0.21416 0.40217,0.26534 0,0.0512 -0.14975,0.29145 -0.33278,0.53393 -0.39554,0.52402 -0.51389,0.8081 -0.51389,1.23353 0,0.40105 -0.32581,0.7235 -1.4157,1.40103 -0.88068,0.54749 -1.17675,0.85047 -1.25888,1.2883 -0.0924,0.49238 0.0989,0.95475 0.59517,1.43883 0.88507,0.86331 1.92222,1.01774 3.73172,0.55564 1.14667,-0.29282 1.97286,-0.40033 2.15154,-0.27998 0.26798,0.18051 -0.3115,1.79246 -1.18772,3.30392 -0.76142,1.31343 -0.73749,1.29443 -1.30379,1.03516 z m 0.9599,-0.71143 c 0.58671,-0.97693 0.99399,-1.81366 1.2411,-2.54979 0.30319,-0.9032 0.29185,-0.98268 -0.14026,-0.98268 -0.19374,0 -0.92716,0.1374 -1.62983,0.30532 -1.567,0.37449 -2.23486,0.3729 -3.08026,-0.007 -0.6708,-0.30171 -1.30703,-0.96518 -1.44287,-1.50464 -0.19977,-0.79339 0.15702,-1.32014 1.41984,-2.09617 1.07921,-0.6632 1.20724,-0.8071 1.28197,-1.44093 0.0487,-0.41319 0.12515,-0.59487 0.40768,-0.96908 0.19125,-0.2533 0.34686,-0.49076 0.34579,-0.52768 -0.001,-0.0369 -0.35348,-0.21745 -0.78316,-0.40116 -0.79744,-0.34094 -1.57849,-0.7728 -1.8819,-1.04055 -0.53897,-0.4756 -0.80052,-1.04174 -0.52917,-1.14541 0.16868,-0.0644 1.07962,0.0855 1.5875,0.26133 0.25612,0.0887 0.96097,0.37224 1.56633,0.63018 1.30246,0.55497 1.45116,0.60334 1.51874,0.49399 0.085,-0.13747 -0.46496,-0.69115 -1.09553,-1.103 -0.32603,-0.21295 -1.27853,-0.70676 -2.11667,-1.09736 -1.74444,-0.81298 -2.44243,-1.20106 -3.22366,-1.79237 -0.30406,-0.23015 -0.58479,-0.41845 -0.62383,-0.41845 -0.20096,0 -0.70073,1.88734 -0.85867,3.24266 -0.30844,2.64685 0.42069,5.81562 1.85275,8.05203 0.85276,1.33172 2.35122,2.88428 3.57775,3.70692 0.78562,0.52692 2.02669,1.18019 2.12578,1.11895 0.0344,-0.0213 0.25064,-0.35189 0.48058,-0.73476 z m -1.67957,-8.38671 c 0,-0.13742 0.6544,-0.90309 0.77185,-0.90309 0.19953,0 0.16594,0.28046 -0.0624,0.52061 -0.32265,0.33942 -0.7095,0.54797 -0.7095,0.38248 z m 0.67733,-0.57442 c 0,-0.0466 -0.0381,-0.0611 -0.0847,-0.0323 -0.0466,0.0288 -0.0847,0.0904 -0.0847,0.137 0,0.0466 0.0381,0.0611 0.0847,0.0323 0.0466,-0.0288 0.0847,-0.0904 0.0847,-0.137 z"
         id="path425" />
      <path
         style="fill:#ec5a5e;stroke-width:0.0846667"
         d="m 113.97062,139.04753 c -1.41302,-0.22173 -2.68265,-0.7318 -3.33093,-1.33819 -0.45501,-0.42561 -0.56561,-0.6394 -0.64712,-1.25084 -0.0951,-0.71369 -0.66674,-0.96519 -1.07225,-0.47179 l -0.2243,0.27292 -0.48641,-0.15333 c -0.62936,-0.19839 -1.22538,-0.7724 -1.42209,-1.36958 -0.0758,-0.23012 -0.21712,-0.89373 -0.31404,-1.47469 -0.0969,-0.58097 -0.22136,-1.11074 -0.27654,-1.17729 -0.26835,-0.32361 -1.12148,-0.4585 -1.36428,-0.2157 -0.1751,0.17511 -0.16849,0.2952 0.0543,0.98705 0.22934,0.71208 0.17114,0.85757 -0.35854,0.8963 -0.20107,0.0147 -0.45142,0.005 -0.55633,-0.0211 -0.24069,-0.0604 -0.71184,-0.52542 -0.71184,-0.70257 0,-0.32751 1.16263,-1.8746 2.15303,-2.865 1.87548,-1.87548 3.87418,-2.95601 6.51983,-3.52474 1.13477,-0.24394 3.51101,-0.26549 4.66214,-0.0423 3.71339,0.72002 6.81556,2.88541 8.71977,6.08661 0.36304,0.61031 0.87528,1.70256 1.01044,2.15458 0.0831,0.27774 -0.29811,0.66112 -1.00432,1.01015 -0.50138,0.24779 -0.74494,0.31385 -1.29666,0.35166 -0.66289,0.0454 -0.68285,0.0412 -0.82527,-0.17618 -0.16828,-0.25684 -0.13103,-0.5951 0.13352,-1.21227 0.19518,-0.45533 0.1616,-0.61931 -0.18683,-0.9125 -0.42349,-0.35634 -0.97812,-0.24042 -1.21246,0.25342 -0.10235,0.21569 -0.12638,0.53232 -0.10992,1.44877 0.0192,1.07025 0.005,1.20328 -0.16572,1.52194 -0.36224,0.67717 -0.89166,0.9648 -1.82362,0.99074 l -0.52959,0.0147 -0.0278,-0.29633 c -0.0153,-0.16298 -0.0879,-0.36301 -0.16129,-0.4445 -0.30513,-0.33865 -1.0937,-0.0591 -1.28516,0.45565 -0.17087,0.45935 -0.22008,0.52903 -0.51589,0.73047 -0.46577,0.31716 -1.07405,0.45695 -2.11621,0.48633 -0.53551,0.0151 -1.08796,0.01 -1.22766,-0.0124 z m 1.98915,-0.12069 c 0.9199,-0.14924 1.69385,-0.57944 1.69385,-0.94152 0,-0.0857 0.12618,-0.29351 0.28041,-0.46181 0.23278,-0.254 0.35201,-0.31286 0.70179,-0.34647 0.48987,-0.0471 0.62376,0.0577 0.70732,0.55355 l 0.0528,0.31307 0.46236,-0.0238 c 0.86435,-0.0444 1.37618,-0.33471 1.69618,-0.96198 0.17554,-0.34408 0.20544,-0.69585 0.16486,-1.93942 -0.0346,-1.05928 0.25542,-1.51983 0.95696,-1.51983 0.26046,0 0.38777,0.0595 0.61616,0.28786 0.33458,0.33459 0.35086,0.47953 0.11399,1.01501 -0.21333,0.48226 -0.25096,1.04616 -0.0771,1.15609 0.46216,0.29231 2.10531,-0.18246 2.66945,-0.7713 0.29182,-0.30459 0.25258,-0.54108 -0.26759,-1.61255 -1.21228,-2.49711 -3.29398,-4.61929 -5.73515,-5.84668 -0.87373,-0.43931 -2.42871,-0.95384 -3.44302,-1.13928 -1.12283,-0.20528 -3.31665,-0.2028 -4.40267,0.005 -3.34003,0.63902 -6.11101,2.4111 -8.08436,5.17005 -0.66413,0.92852 -0.7482,1.1034 -0.63347,1.31778 0.14505,0.27103 0.59643,0.50204 0.98163,0.50239 0.52606,4.7e-4 0.59394,-0.13861 0.37873,-0.7759 -0.21215,-0.62819 -0.2247,-0.94285 -0.0448,-1.12274 0.25907,-0.25907 1.25898,-0.11548 1.53788,0.22086 0.0575,0.0694 0.18277,0.59915 0.27831,1.17728 0.22885,1.38474 0.37654,1.81056 0.77961,2.24785 0.28521,0.30942 1.03126,0.7103 1.31716,0.70776 0.0332,-2.5e-4 0.12523,-0.11459 0.20455,-0.254 0.11697,-0.20556 0.20009,-0.25346 0.43978,-0.25346 0.47324,0 0.72186,0.27889 0.81033,0.909 0.11141,0.79347 0.44164,1.16803 1.50133,1.70291 1.22571,0.61866 3.0122,0.90015 4.34282,0.68427 z"
         id="path423" />
      <path
         style="fill:#eb3136;stroke-width:0.0846667"
         d="m 113.89313,138.92363 c -1.53698,-0.22417 -3.02584,-0.90447 -3.53049,-1.61318 -0.0951,-0.13353 -0.20624,-0.48039 -0.24702,-0.77079 -0.0885,-0.63011 -0.33709,-0.909 -0.81033,-0.909 -0.23969,0 -0.32281,0.0479 -0.43978,0.25346 -0.0793,0.13941 -0.17137,0.25371 -0.20455,0.254 -0.2859,0.003 -1.03195,-0.39834 -1.31716,-0.70776 -0.40307,-0.43729 -0.55076,-0.86311 -0.77961,-2.24785 -0.0955,-0.57813 -0.22078,-1.10791 -0.27831,-1.17728 -0.2789,-0.33634 -1.27881,-0.47993 -1.53788,-0.22086 -0.17989,0.17989 -0.16734,0.49455 0.0448,1.12274 0.21521,0.63729 0.14733,0.77637 -0.37873,0.7759 -0.3852,-3.5e-4 -0.83658,-0.23136 -0.98163,-0.50239 -0.11473,-0.21438 -0.0307,-0.38926 0.63347,-1.31778 1.64741,-2.30325 3.78412,-3.87974 6.41968,-4.73649 1.39356,-0.45301 2.28054,-0.58757 3.86602,-0.58652 1.64552,0.001 2.54278,0.14103 3.98884,0.62212 1.94927,0.6485 3.41268,1.55706 4.90764,3.04691 1.07939,1.07569 1.83501,2.13011 2.48302,3.46491 0.52017,1.07147 0.55941,1.30796 0.26759,1.61255 -0.56414,0.58884 -2.20729,1.06361 -2.66945,0.7713 -0.17381,-0.10993 -0.13618,-0.67383 0.0771,-1.15609 0.23687,-0.53548 0.22059,-0.68042 -0.11399,-1.01501 -0.22839,-0.22839 -0.3557,-0.28786 -0.61616,-0.28786 -0.70154,0 -0.99152,0.46055 -0.95696,1.51983 0.0406,1.24357 0.0107,1.59534 -0.16486,1.93942 -0.32,0.62727 -0.83183,0.91755 -1.69618,0.96198 l -0.46236,0.0238 -0.0528,-0.31307 c -0.0836,-0.49585 -0.21745,-0.60062 -0.70732,-0.55355 -0.34978,0.0336 -0.46901,0.0925 -0.70179,0.34647 -0.15423,0.1683 -0.28041,0.37611 -0.28041,0.46181 0,0.36208 -0.77395,0.79228 -1.69385,0.94152 -0.63239,0.1026 -1.3488,0.10149 -2.06664,-0.003 z"
         id="path421" />
      <path
         style="fill:#2e68af;stroke-width:0.0846667"
         d="m 108.63458,150.35103 c -1.90368,-0.95673 -3.77287,-2.65969 -4.96817,-4.52635 -1.43206,-2.23641 -2.16119,-5.40518 -1.85275,-8.05203 0.15794,-1.35532 0.65771,-3.24266 0.85867,-3.24266 0.039,0 0.31977,0.1883 0.62383,0.41845 0.78123,0.59131 1.47922,0.97939 3.22366,1.79237 0.83814,0.3906 1.79064,0.88441 2.11667,1.09736 0.63057,0.41185 1.18049,0.96553 1.09553,1.103 -0.0676,0.10935 -0.21628,0.061 -1.51874,-0.49399 -0.60536,-0.25794 -1.31021,-0.54153 -1.56633,-0.63018 -0.50788,-0.17582 -1.41882,-0.32577 -1.5875,-0.26133 -0.27135,0.10367 -0.01,0.66981 0.52917,1.14541 0.30341,0.26775 1.08446,0.69961 1.8819,1.04056 0.42968,0.18371 0.7821,0.36423 0.78316,0.40115 10e-4,0.0369 -0.15454,0.27438 -0.34579,0.52769 -0.28253,0.37421 -0.35896,0.55589 -0.40768,0.96908 -0.0747,0.63382 -0.20276,0.77773 -1.28197,1.44092 -1.26282,0.77604 -1.61961,1.30279 -1.41984,2.09618 0.13584,0.53946 0.77207,1.20293 1.44287,1.50464 0.8454,0.38024 1.51326,0.38183 3.08026,0.007 0.70267,-0.16793 1.43609,-0.30533 1.62983,-0.30533 0.29998,0 0.35226,0.0261 0.35226,0.17557 0,0.27325 -0.392,1.37464 -0.72951,2.04971 -0.34134,0.6827 -1.10777,1.98237 -1.20417,2.04195 -0.0344,0.0212 -0.36529,-0.11354 -0.73536,-0.29952 z m 0.0444,-9.29171 c 0,-0.0466 0.0381,-0.10822 0.0847,-0.137 0.0466,-0.0288 0.0847,-0.0142 0.0847,0.0323 0,0.0466 -0.0381,0.10822 -0.0847,0.137 -0.0466,0.0288 -0.0847,0.0142 -0.0847,-0.0323 z"
         id="path419" />
      <path
         style="fill:#11a356;stroke-width:0.0846667"
         d="m 114.71754,151.01629 c 0.0932,-1.10252 0.40726,-2.00209 1.82443,-5.22563 0.63573,-1.44607 0.72813,-1.88177 0.60556,-2.85552 -0.0876,-0.69564 -0.0832,-0.81998 0.0348,-1.0001 0.15947,-0.24339 0.23105,-0.26192 1.45493,-0.37663 1.09899,-0.10301 1.74398,-0.27394 2.12796,-0.56395 0.45684,-0.34504 0.67346,-0.95222 0.42747,-1.1982 -0.14636,-0.14636 -0.66891,-0.12572 -1.80305,0.0712 -0.54739,0.095 -1.01275,0.15532 -1.03414,0.13394 -0.0214,-0.0214 0.41202,-0.17819 0.96312,-0.34847 3.8405,-1.18659 6.49676,-2.10642 7.11389,-2.46345 0.195,-0.11282 0.37606,-0.1703 0.40236,-0.12775 0.0263,0.0426 0.0849,0.53147 0.13026,1.08648 0.13443,1.64544 -0.0905,3.45152 -0.63002,5.05874 -1.0157,3.02571 -3.38623,5.73272 -6.2986,7.19264 -1.53307,0.76849 -3.26351,1.23305 -4.59307,1.23305 h -0.77799 z"
         id="path417" />
    </g>
  </g>
</svg>
